<?xml version="1.0" encoding="UTF-8"?>
<svg width="128px" height="128px" viewBox="0 0 128 128" version="1.1" xmlns="http://www.w3.org/2000/svg" xmlns:xlink="http://www.w3.org/1999/xlink">
    <!-- Generator: Sketch 58 (84663) - https://sketch.com -->
    <title>icon-128x128</title>
    <desc>Created with Sketch.</desc>
    <g id="icon-128x128" stroke="none" stroke-width="1" fill="none" fill-rule="evenodd">
        <g id="Group" transform="translate(16.000000, 0.000000)">
            <path d="M47.6901403,69.1538276 L94.4666863,128 L1.68634587,108.646498 C0.542496172,108.407897 -0.19135276,107.287199 0.0472484028,106.14335 C0.122760102,105.781348 0.291834754,105.44546 0.537619,105.169168 L10.2172428,94.2878276 C10.2468469,94.8290029 10.6715241,95.2645765 11.2149105,95.295118 L26.3910934,96.1481083 L47.6901403,69.1538276 Z M78.6386223,34.4345229 L87.198612,34.5572492 L65.5342839,60.700432 L87.233615,86.9731391 L78.6312974,86.9114725 L56.9024319,60.7428521 L78.6386223,34.4345229 Z" id="Combined-Shape" fill="#334B3D"></path>
            <path d="M94.4802738,2.13162821e-14 L47.7241824,52.6265028 L26.4344492,31.8268405 L15.6885151,32.8661987 C15.1069937,32.9224441 14.6811734,33.4394562 14.7374188,34.0209776 C14.7597468,34.2518271 14.8573217,34.4689414 15.0151263,34.6389055 L39.9746947,61.5217025 L10.6184875,94.4493195 C10.4274443,94.6636044 10.3395341,94.9340533 10.3512699,95.1998586 L0.06,106.844 L1.7611787e-06,18.5044298 C-0.00255177449,14.7728156 2.77195963,11.6223223 6.47396448,11.153162 L94.4802738,2.13162821e-14 Z" id="Combined-Shape" fill="#246942"></path>
        </g>
    </g>
</svg>