<?xml version="1.0" encoding="UTF-8"?>
<svg width="256px" height="256px" viewBox="0 0 256 256" version="1.1" xmlns="http://www.w3.org/2000/svg" xmlns:xlink="http://www.w3.org/1999/xlink">
    <!-- Generator: Sketch 58 (84663) - https://sketch.com -->
    <title>icon-256x256</title>
    <desc>Created with Sketch.</desc>
    <g id="icon-256x256" stroke="none" stroke-width="1" fill="none" fill-rule="evenodd">
        <g id="Group" transform="translate(32.000000, 0.000000)">
            <path d="M95.3802805,138.307655 L188.933373,256 L3.37269174,217.292997 C1.08499234,216.815794 -0.38270552,214.574398 0.0944968056,212.286699 C0.245520205,211.562696 0.583669508,210.89092 1.075238,210.338336 L20.4348886,188.574253 C20.4825115,189.646491 21.3358876,190.528751 22.429821,190.590236 L52.7821869,192.296217 L95.3802805,138.307655 Z M157.277245,68.8690457 L174.397224,69.1144984 L131.068568,121.400864 L174.46723,173.946278 L157.262595,173.822945 L113.804864,121.485704 L157.277245,68.8690457 Z" id="Combined-Shape" fill="#334B3D"></path>
            <path d="M188.960548,2.13162821e-14 L95.4483647,105.253006 L52.8688985,63.6536811 L31.3770302,65.7323974 C30.2139875,65.8448882 29.3623468,66.8789124 29.4748375,68.0419551 C29.5194935,68.5036542 29.7146435,68.9378829 30.0302526,69.2778109 L79.9493894,123.043405 L21.2369749,188.898639 C20.8553852,189.326652 20.6795255,189.866701 20.7024493,190.397645 L0.12,213.687 L3.52235732e-06,37.0088596 C-0.00510354899,29.5456312 5.54391926,23.2446445 12.947929,22.3063241 L188.960548,2.13162821e-14 Z" id="Combined-Shape" fill="#246942"></path>
        </g>
    </g>
</svg>