<?xml version="1.0" encoding="utf-8"?>
<!-- Generator: Adobe Illustrator 22.1.0, SVG Export Plug-In . SVG Version: 6.00 Build 0)  -->
<svg version="1.1" id="Layer_1" xmlns="http://www.w3.org/2000/svg" xmlns:xlink="http://www.w3.org/1999/xlink" x="0px" y="0px"
	 viewBox="0 0 828 307" style="enable-background:new 0 0 828 307;" xml:space="preserve">
<style type="text/css">
	.st0{fill:#246B46;}
	.st1{fill:#16492F;}
</style>
<g id="Page-1">
	<g id="Artboard" transform="translate(-1742.000000, -1049.000000)">
		<g id="Xtable-logo" transform="translate(1742.000000, 1049.000000)">
			<path id="Combined-Shape" class="st0" d="M122.2,90.7l-18.8,1.1L85.9,134L71.1,93.4l-23.5,1.3l24.5,54.7l-26.5,51.1l3.5,0.3
				L0,274.8V28.1L182.3,0L122.2,90.7z"/>
			<path class="st1" d="M49.1,200.8l19.3,1.7l16.8-42.4l16.8,44.1l24.8,1.7l-28.5-57.8l28.5-57.7l-4.6,0.3L182.3,0v108.5L118,149.1
				l64.3,40v117.1L0,274.8L49.1,200.8z"/>
			<path class="st1" d="M247.3,116.5l-74.3,34l73.9,34v16.4l-98-44.6v-11.6l98.4-44.6L247.3,116.5L247.3,116.5z M322.6,132.3h-24.3
				V180c0,5.5,1,9.5,3.1,11.9s5.3,3.6,9.8,3.6c1.7,0,3.5-0.2,5.4-0.6c1.9-0.4,3.7-1,5.2-1.7l0.6,14.9c-2.2,0.8-4.6,1.4-7.2,1.8
				c-2.6,0.5-5.4,0.7-8.2,0.7c-8.6,0-15.2-2.4-19.8-7.1c-4.6-4.8-6.9-11.9-6.9-21.4v-49.6h-17.6v-14.9h17.6V91.2h17.9v26.2h24.3
				v14.9H322.6z M398.3,149.7c0-6.8-2.1-11.9-6.2-15.2s-9.6-4.9-16.4-4.9c-5.1,0-10,1-14.6,3s-8.4,4.5-11.5,7.6l-9.6-11.6
				c4.5-4.2,10-7.6,16.5-10s13.5-3.7,20.9-3.7c6.6,0,12.3,0.9,17.1,2.8c4.8,1.9,8.8,4.4,11.9,7.6c3.1,3.2,5.4,7,6.9,11.4
				s2.3,9.1,2.3,14.1v40c0,3.1,0.1,6.3,0.3,9.7c0.2,3.4,0.5,6.2,1.1,8.4h-16.4c-1-4.4-1.5-8.7-1.5-13.1h-0.6
				c-3.3,4.9-7.6,8.7-12.6,11.4c-5.1,2.7-11.1,4.1-18,4.1c-3.6,0-7.4-0.5-11.3-1.4c-3.9-1-7.5-2.5-10.7-4.7s-5.9-5.1-8-8.7
				c-2.1-3.6-3.2-8-3.2-13.3c0-6.9,1.9-12.4,5.6-16.5s8.6-7.1,14.7-9.3c6-2.1,12.9-3.5,20.5-4.1s15.2-1,23-1v-2.6H398.3z
				 M393.8,165.3c-4.5,0-9.2,0.2-14,0.6c-4.8,0.4-9.2,1.2-13.1,2.3s-7.2,2.9-9.7,5.2s-3.9,5.4-3.9,9.3c0,2.7,0.5,5,1.6,6.8
				s2.5,3.3,4.3,4.4c1.8,1.2,3.8,2,6,2.4c2.2,0.5,4.4,0.7,6.8,0.7c8.5,0,15-2.5,19.6-7.6s6.9-11.5,6.9-19.2v-4.8L393.8,165.3
				L393.8,165.3z M463.9,194.4v14.5h-17.6V63h18.1v68.1h0.6c3.1-4.5,7.4-8.3,12.9-11.5s12.1-4.7,19.7-4.7c6.8,0,13,1.2,18.6,3.7
				c5.6,2.4,10.4,5.9,14.5,10.2c4.1,4.4,7.2,9.5,9.4,15.3c2.2,5.9,3.3,12.1,3.3,18.8s-1.1,13-3.3,18.9s-5.3,11.1-9.3,15.4
				c-4,4.4-8.8,7.8-14.5,10.3s-12,3.8-19.1,3.8c-6.6,0-12.8-1.4-18.7-4.3c-5.9-2.9-10.7-7.1-14.3-12.6H463.9z M524.7,163
				c0-4.2-0.6-8.4-1.9-12.4c-1.3-4-3.2-7.5-5.8-10.6s-5.8-5.5-9.6-7.3c-3.8-1.8-8.2-2.7-13.2-2.7c-4.6,0-8.8,0.9-12.6,2.7
				c-3.8,1.8-7,4.2-9.7,7.3s-4.8,6.6-6.3,10.6s-2.2,8.2-2.2,12.5c0,4.4,0.7,8.6,2.2,12.5c1.5,4,3.6,7.5,6.3,10.5
				c2.7,3,6,5.4,9.7,7.2c3.8,1.8,8,2.7,12.6,2.7c5,0,9.4-0.9,13.2-2.8c3.8-1.9,7-4.3,9.6-7.4c2.6-3.1,4.5-6.6,5.8-10.6
				C524,171.3,524.7,167.2,524.7,163z M587.2,208.9h-18.1V63h18.1V208.9z M704.2,162.4v3.1c0,1-0.1,2.1-0.2,3.1h-72.6
				c0.1,3.9,1,7.5,2.6,10.9s3.8,6.4,6.5,8.9s5.8,4.5,9.4,5.9c3.5,1.4,7.3,2.1,11.3,2.1c6.2,0,11.5-1.4,16-4.1s8-6,10.6-9.8
				l12.7,10.2c-4.9,6.4-10.6,11.2-17.3,14.2c-6.6,3-14,4.5-22.1,4.5c-6.9,0-13.4-1.2-19.3-3.5c-5.9-2.3-11-5.6-15.2-9.7
				c-4.2-4.2-7.6-9.2-10-15.2c-2.4-5.9-3.7-12.5-3.7-19.7c0-7.1,1.2-13.6,3.6-19.6c2.4-6,5.7-11.1,9.9-15.3s9.3-7.6,15.1-9.9
				c5.8-2.4,12-3.6,18.7-3.6s12.8,1.1,18.2,3.3c5.5,2.2,10.1,5.3,13.9,9.5c3.8,4.1,6.7,9.1,8.8,15
				C703.1,148.5,704.2,155.1,704.2,162.4z M685.8,155.1c-0.1-3.6-0.7-7-1.8-10.1c-1.1-3.2-2.7-5.9-4.8-8.2s-4.8-4.1-7.9-5.5
				c-3.2-1.4-6.9-2-11.1-2c-3.9,0-7.5,0.7-10.9,2c-3.4,1.4-6.4,3.2-8.9,5.5s-4.6,5.1-6.2,8.2c-1.6,3.2-2.5,6.5-2.8,10.1H685.8z
				 M729.1,100.1l98,44.6v11.6l-98,44.6v-16.4l73.9-34l-73.9-34V100.1z"/>
		</g>
	</g>
</g>
</svg>
